<svg width="213" height="51" viewBox="0 0 213 51" fill="none" xmlns="http://www.w3.org/2000/svg">
<path d="M38.9857 0L40.2858 0.00939593L40.6266 0.0802947L41.5355 0.257115L42.0053 0.445892L42.0155 0.454435L42.0335 0.457851L43.1072 1.18136L43.3447 1.53414L43.5112 1.66911L43.5745 1.87497L43.8316 2.25594L44.0964 3.57056L43.8316 4.88602L43.7367 5.02526L43.6018 5.5224L43.3976 5.82564L43.2661 6.28947L42.7818 6.73622L42.5434 7.08986L42.3162 7.16674L42.0864 7.37943L40.5779 8.15505L40.3234 8.2174L40.1782 8.32332L37.9453 9.05879L37.7343 9.09296L37.6719 9.12969L35.0376 9.63452L34.8351 9.65417L34.0988 9.34922L33.7939 8.61375L34.0014 7.98933L34.8719 6.82762L33.6495 6.8225L29.5775 6.92756H29.5707L24.8111 7.04715L19.6782 7.35808H19.6774L14.1191 7.74332L14.1139 7.74418L11.1695 7.9526L11.1712 9.5286L11.606 13.7902L11.6111 13.8833L11.6154 13.9004L11.8888 17.8032L12.444 18.9222L12.4705 19.0358L12.5243 19.1033L14.512 24.1124L14.5752 24.4361L14.6427 24.5489L15.6421 29.4648L15.6848 29.8833L15.6959 29.9081L15.8864 34.9385L15.8873 35.0017L15.8881 35.0043L15.9667 39.8108V39.8638L15.9573 40.1021L15.6395 44.1801L15.6148 44.2706L15.5857 44.5611L15.0228 47.3603L14.9476 47.4833L14.8836 47.8463L14.307 48.8432L13.6834 49.594L13.5749 49.6786L13.4861 49.811L12.7916 50.2876L12.5038 50.5114L12.4465 50.5242L12.3885 50.5635L11.0405 50.8514L10.2794 50.8616H10.2316L8.86574 50.5857L8.41814 50.2842L8.20203 50.215L8.08159 50.057L7.75016 49.834L6.99761 48.7184L6.97369 48.5971L6.92842 48.5382L6.38942 47.0391L6.31852 46.6385L6.20576 46.2917L5.83846 43.5582L5.82394 43.3404L5.81283 43.2977L5.5429 39.1036L5.53863 38.9729L5.53692 38.9635L5.38402 33.2378L5.38317 33.1404V33.102L5.45407 26.6869L5.50959 20.2215L5.47969 14.231L5.45663 13.9141L4.79804 12.5448L3.13491 9.79597L2.02702 8.27036L1.77246 8.21911L1.5051 8.03888L1.33853 7.99019L1.201 7.83472L0.8542 7.59982L0.386098 6.90621L0.283594 6.79004L0.27676 6.77722L0.265656 6.72853L0.234905 6.68155L0.232342 6.67045L0.222091 6.65507L0 5.55743L0.222091 4.45978L0.257968 4.40596L0.269927 4.35386L0.291282 4.30773L0.411724 4.17106L0.808073 3.56116L1.20015 3.28013L1.33853 3.12381L1.47264 3.08452L1.68107 2.93503L2.76334 2.67108L4.92019 2.57114L8.57446 2.25423L13.5502 1.70157H13.5536L19.0743 1.02504L19.1785 1.01821L19.2024 1.01137L24.3806 0.562918L24.4352 0.56121L24.4455 0.558647L29.2401 0.221238L29.3153 0.218676L29.3238 0.216967L33.4402 0.0170844L33.5965 0.0136678H33.5982L36.8066 0H36.8211H38.9609H38.9857Z" fill="hsla(216, 40%, 20%, 1)"/>
<path d="M44.2741 19.6995L44.3347 19.7354L44.3937 19.7474L44.6679 19.9327L45.2248 20.2616L45.2675 20.3368L45.411 20.4333L46.0969 21.4507L46.2097 22.0084L46.3071 22.1801L46.4258 22.9054L46.4583 23.2932L46.4702 23.3444L46.5368 25.2459V25.2527V25.2536L46.6189 27.6129V27.6154L46.7162 30.3155L47.0067 33.0772L47.3219 35.6082V35.6116L47.5773 37.4584L47.9779 38.6457L47.9924 38.7337L48.0163 38.7679L48.2871 39.6502L48.3478 39.8142L48.5417 40.882L48.3042 42.0599L48.1991 42.2154L48.1658 42.3435L47.9736 42.5494L47.6559 43.0209L47.327 43.243L47.1596 43.4224L46.9187 43.5787L46.7589 43.6257L46.694 43.6693L46.6616 43.6761L46.3822 43.864L45.0582 44.1314L43.7334 43.864L43.6095 43.7812L43.4976 43.7538L43.2328 43.5275L42.6519 43.1354L42.482 42.8834L42.3094 42.7356L41.7209 41.9292L41.5663 41.4577L41.2408 41.0315L40.6967 39.5341L40.6249 39.1326L40.5062 38.7747L40.203 36.5785L40.197 36.4906L40.1893 36.4649L39.9014 33.8818L39.8997 33.8511L39.898 33.8442L39.5939 30.957L39.5726 30.5667L39.5751 30.4385L39.6768 27.6094V27.6086L39.722 26.2931L39.3761 26.3213L39.1207 26.3316L39.1164 26.3324L37.8744 26.3392L36.1857 26.4836L36.0934 26.4879L36.0797 26.4913L33.4719 26.6399L30.1268 26.9696L26.1351 27.4548L26.1232 27.4557L26.1215 27.4565L21.8479 27.9785H21.8471L17.5282 28.5849L17.1105 28.6157L17.1045 28.6165L13.3606 28.6311H13.3486L13.3033 28.6302L8.48822 28.5525L7.89797 28.4235L7.47514 28.3389L7.46147 28.3287L7.44524 28.3253L6.94126 27.9785L6.60983 27.7547L6.60386 27.7461L6.59446 27.7393L6.21947 27.1755L6.02642 26.8893L6.02556 26.8842L6.02214 26.8791L5.81201 25.8293L6.02214 24.7803L6.02556 24.7752L6.02642 24.7701L6.21947 24.4831L6.59446 23.9193L6.60386 23.9133L6.60983 23.9039L6.94126 23.681L7.44524 23.3342L7.46147 23.3307L7.47514 23.3205L7.91164 23.2325L8.49078 23.1069L13.1598 23.0309L16.6048 22.6209L20.7733 21.7411L20.9083 21.7266L20.9365 21.7103L25.1819 21.015L25.2442 21.0099L25.2664 21.0031L29.2923 20.4273L29.3529 20.4231L29.3717 20.4171L32.7876 19.9942L32.9892 19.9814L33.0243 19.9729L35.662 19.8217L37.4405 19.6773L37.7224 19.6654H37.7412L39.1173 19.6731L39.1215 19.6739L39.3641 19.6833L40.5147 19.7756L40.6318 19.808L40.9649 19.8456L41.55 19.978L41.6278 19.9327L41.902 19.7474L41.9609 19.7354L42.0215 19.6995L43.1474 19.4962L44.2741 19.6995Z" fill="hsla(216, 40%, 20%, 1)"/>
<path d="M47.6797 10.0548L48.5168 10.6194L49.0814 11.4574L49.289 12.4824L49.0814 13.5083L48.5168 14.3463L47.6797 14.9109L46.6538 15.1176L45.6279 14.9109L44.7908 14.3463L44.2261 13.5083L44.0186 12.4824L44.2261 11.4574L44.7908 10.6194L45.6279 10.0548L46.6538 9.84808L47.6797 10.0548Z" fill="hsla(216, 40%, 20%, 1)"/>
<path d="M56.0833 18.982L56.2199 19.0742L56.3335 19.1024L56.5326 19.2844L56.9827 19.5885L57.1749 19.8729L57.3389 20.0232L60.0647 24.1243L60.1911 24.5403L60.3867 24.8093L61 23.4708L61.1153 23.3375L61.5672 22.6388L62.5726 21.5779L62.8622 21.3737L63.0339 21.1781L64.0974 20.4256L64.709 20.2291L65.1668 19.9353L66.2969 19.6577L67.0546 19.5645H67.0759L68.4521 19.5739L68.4572 19.5748L68.6844 19.5842L70.2895 19.7166L70.3014 19.72L70.3475 19.7226L71.9457 19.8926L71.9842 19.9122L72.2199 19.937L73.7703 20.2676L73.8062 20.2898L73.9155 20.3051L75.4138 20.7322L75.5248 20.8091L75.735 20.8578L76.8497 21.4071L76.9215 21.472L77.0043 21.4976L77.551 21.8649L77.9311 22.5824L77.6697 23.2026L77.2008 23.6604L77.0598 23.7177L76.8412 23.9141L75.7461 24.454L75.5172 24.5078L75.3993 24.5889L73.9335 25.0084L73.7951 25.028L73.7541 25.0528L72.2379 25.3765L71.9739 25.4056L71.9338 25.4261L70.3603 25.5935L70.2929 25.5969L70.2783 25.6012L68.6964 25.7327L68.4555 25.743L68.4512 25.7438L67.5039 25.7507L67.2921 25.8113L66.9299 26.0727L66.4959 26.5493L65.9151 27.8187L65.3248 29.4869L65.0583 31.8172L65.0481 31.8505L65.0412 31.941L64.6278 34.5327L64.6141 37.2602V39.8501V39.8757L64.5971 41.9403V41.9429L64.5945 42.0437L64.5723 42.5844L64.422 43.2062L64.3314 43.6538L64.3041 43.6948L64.293 43.7427L63.9094 44.2808L63.6677 44.6387L63.6412 44.6567L63.6224 44.6831L62.998 45.0906L62.6828 45.3033L62.6674 45.3059L62.6529 45.3153L61.4767 45.5467L60.3004 45.3153L60.2868 45.3059L60.2705 45.3033L59.9553 45.0906L59.3309 44.6831L59.3121 44.6567L59.2856 44.6387L59.0439 44.2808L58.6612 43.7427L58.6493 43.6948L58.6219 43.6538L58.5288 43.1909L58.381 42.5784L58.364 42.159L58.1461 41.1075L58.1444 41.0912L58.1427 41.0878L57.6874 38.8925L57.6789 38.8105L57.6686 38.7917L57.1399 35.8473L56.4898 32.8021L55.5733 29.6424L55.5699 29.6202L55.5656 29.6142L54.8037 26.9636L52.5349 23.0104L52.4982 22.8729L52.3752 22.6901L52.1531 21.589L52.3752 20.4879L52.9817 19.5885L53.8811 18.982L54.9822 18.7599L56.0833 18.982Z" fill="hsla(216, 40%, 20%, 1)"/>
<path d="M109.242 14.9263L109.259 14.9374L109.277 14.9416L109.567 15.1458L110.159 15.5447L110.181 15.578L110.214 15.6011L111.774 17.248L112.071 17.7067L112.225 17.8681L113.732 20.6443L113.813 20.9595L113.952 21.15L115.167 24.8213L115.214 25.1032L115.268 25.1929L116.025 28.8232L116.031 28.8762L116.038 28.8882L116.695 32.2716L117.335 30.8742L117.866 30.2643L118.662 30.0294L119.696 30.4582L120.125 31.4926L120.124 31.5174L120.067 34.8932L120.065 34.8983L120.054 35.0914L119.72 38.1391L119.699 38.1801L119.672 38.4193L119.192 40.5668L119.045 40.8008L118.928 41.2809L118.284 42.0146L118.159 42.2145L118.086 42.2402L118.011 42.3264L117.404 42.7561L117.204 42.8202L116.786 43.102L115.53 43.3557L115.287 43.3463L114.656 43.2994L113.45 42.9696L113.165 42.7578L113.007 42.7083L112.883 42.5485L112.474 42.2444L111.821 41.2143L111.811 41.1664L111.795 41.1451L111.344 39.9449L111.284 39.622L111.21 39.5041L110.684 37.2337L110.655 36.986L110.619 36.8741L110.248 33.9245L109.652 30.0123V30.008L109.061 26.4656L108.25 23.1129L107.175 20.8988L106.776 20.4401L106.459 20.4324L105.325 20.7271L104.081 21.2986L103.041 22.1878L101.968 23.6929L100.996 25.444L100.434 27.6564L99.9917 30.2737L99.8857 32.6518L99.9686 34.9701V34.9709L100.048 36.8578L100.051 36.9937L100.051 37.0688L100.032 37.8376L99.9583 38.1648L99.8285 38.8763L99.7807 38.9558L99.7627 39.0352L99.5526 39.3359L99.2656 39.8176L99.1887 39.8595L99.0845 40.009L98.0936 40.665L97.5119 40.7803L97.3471 40.8709L97.2155 40.8905L96.7329 40.9272L95.4994 40.6778L95.3884 40.6026L95.2867 40.5787L95.0373 40.3669L94.4923 39.9987L94.3394 39.7724L94.1823 39.6391L94.0251 39.4264L93.9473 39.1915L93.8124 38.9916L93.7569 38.7157L93.498 38.3202L93.2862 37.4985V37.4959L92.854 35.9609L92.8386 35.8516L92.8172 35.8183L92.2919 33.6221L92.2577 33.3385L92.221 33.2155L91.9272 30.5667L91.1225 27.7768L91.1191 27.7521L91.114 27.7444L90.2931 24.858L89.4739 22.9506L89.3048 22.7362H89.2074L89.1339 22.7695L88.8649 23.0582L88.3464 24.3541L87.9124 26.4451L87.6912 29.0966L87.6903 29.0991V29.1068L87.4042 32.2708L87.3734 35.3476L87.3726 35.3536L87.3666 35.5381L87.1829 38.3023L87.1735 38.3373L87.1633 38.4996L86.9267 40.3601L86.7823 40.8068L86.7071 41.1997L86.4833 41.7644L86.4705 41.7797L86.4654 41.8079L85.7077 42.9312L85.3438 43.1764L85.2038 43.3498L84.9885 43.4164L84.5845 43.688L83.2092 43.9665H83.1323L81.7571 43.688L81.371 43.4283L81.1574 43.3626L81.0139 43.1875L80.6338 42.9312L79.8761 41.8079L79.8735 41.7917L79.8684 41.7857L79.6267 41.2066L79.5472 40.8136L79.3798 40.3062L79.1714 38.7943L79.1671 38.7328L79.162 38.7149L78.9245 36.7468V36.7425L78.5572 33.9595L78.5521 33.875L78.5444 33.8519L78.1985 30.5778L78.195 30.5291L78.1925 30.5188L77.8764 27.1294L77.5048 24.2439L77.3477 23.4896L76.8659 23.165L76.2167 22.2032L75.9792 21.0244L76.2167 19.8464L76.2799 19.7525L76.3004 19.6679L76.9821 18.3063L77.1418 18.1329L77.5587 17.5136L77.9516 17.2488L78.1147 17.072L78.289 17.0216L78.553 16.8439L79.7702 16.5979L80.9883 16.8439L81.5614 17.23L81.7348 17.2915L81.7946 17.3872L81.9826 17.5136L82.6531 18.5079L82.7326 18.9008L82.8248 19.0503L83.1093 20.335L83.2545 20.763L83.4757 20.2283L83.5235 20.1702L84.0523 19.3416L85.1235 18.1936L86.1092 17.4923L86.1408 17.4854L86.1562 17.4718L87.3657 16.9601L87.376 16.9584L87.3854 16.9516L88.5573 16.7149H89.6268L90.1837 16.7671L91.4992 17.0139L91.717 17.1429L92.25 17.2676L93.1316 17.9809L93.2281 18.0381L93.2384 18.068L93.2768 18.0988L94.4189 19.5449L94.5273 19.8575L94.8084 20.1873L95.8872 22.6055L95.9359 22.8319L95.947 22.8464L97.0729 20.7895L97.2112 20.6468L97.2599 20.4982L98.6497 18.5865L98.8761 18.3926L99.0896 18.1116L100.69 16.738L100.992 16.6253L101.358 16.3083L103.175 15.4746L103.504 15.402L103.655 15.3021L105.393 14.8468L105.968 14.7708L106.059 14.7503L108.041 14.6999L108.118 14.699L109.242 14.9263Z" fill="hsla(216, 40%, 20%, 1)"/>
<path d="M122.243 18.2628L122.455 18.4054L122.608 18.4473L122.78 18.6258L123.195 18.9051L123.518 19.3843L123.693 19.5646L127.547 26.4699L127.629 26.7851L127.781 26.9859L128.969 30.3608L130.108 33.2258L130.109 33.2284L131.13 35.6329L131.786 36.9809L132.1 37.5233L132.141 37.6736L132.277 37.8752L132.515 39.0566L132.277 40.2379L131.627 41.2032L130.662 41.8532L129.48 42.0915L128.324 41.8626L128.303 41.8541L128.299 41.8532L128.297 41.8515L127.592 41.5611L127.395 41.4005L127.137 41.327L126.607 40.7521L126.138 40.3669L126.082 40.1841L125.937 40.0286L125.166 38.527L125.13 38.38L125.054 38.2886L123.992 35.7884L123.97 35.6816L123.929 35.6278L122.824 32.6586L122.801 32.5322L122.762 32.4784L121.742 29.2444L118.389 22.3535L118.37 22.2741L118.314 22.1912L118.079 21.0244L118.314 19.8584L118.957 18.9051L119.909 18.2628L121.076 18.027L122.243 18.2628Z" fill="hsla(216, 40%, 20%, 1)"/>
<path d="M134.612 7.54088L135.838 8.36775L136.665 9.59352L136.968 11.0944L136.665 12.596L135.838 13.8218L134.612 14.6487L133.111 14.9519L131.61 14.6487L130.384 13.8218L130.073 13.3614L130.043 13.3358L129.864 13.0898L129.838 13.0129L129.557 12.596L129.538 12.5004L129.474 12.4056L129.209 11.0944L129.474 9.78401L129.538 9.68834L129.557 9.59352L129.831 9.18607L129.857 9.10834L130.05 8.84354L130.079 8.81876L130.384 8.36775L131.61 7.54088L133.111 7.23764L134.612 7.54088Z" fill="hsla(216, 40%, 20%, 1)"/>
<path d="M142.801 6.30995L143.896 6.50129L144.444 6.8182L145.17 7.06336L145.366 7.35293L145.641 7.51181L145.834 8.04227L146.232 8.62654L146.868 10.8885L146.894 11.0764L146.926 11.1285L147.648 14.7025L151.408 14.2907L151.457 14.2882L151.468 14.2848L156.882 13.7714L156.958 13.768L156.971 13.7646L162.467 13.3776L162.695 13.3691H162.7L167.589 13.3767L171.868 13.3827H171.911L175.121 13.4331L175.126 13.434L175.217 13.4365L177.133 13.5297L178.223 13.7996L178.37 13.9064L178.478 13.9354L179.609 14.6042L179.968 14.9698L180.529 15.4849L180.827 15.9342L180.879 16.1068L181.085 16.4117L181.263 17.2967L181.402 17.3906L181.926 18.1662L182.025 18.2799L182.134 18.5113L182.14 18.5412L182.16 18.5694L182.443 19.802L182.501 21.7052L182.503 21.7932V21.7949L182.515 24.5429L182.539 28.1886L182.596 31.4038L183.282 33.5111L184.405 35.1512L185.256 35.8482L186.27 36.0404L186.757 36.0703L187.363 35.5706L188.648 33.5948L190.108 30.5974L190.111 30.5949L190.112 30.5923L191.658 27.495L191.665 27.4873L191.667 27.477L193.102 24.7325L193.761 21.941L193.763 21.9392L193.764 21.9307L193.772 21.8965L193.76 21.841L193.639 21.6471L193.084 19.2109L193.078 19.1529L193.069 19.1383L192.705 17.3975L192.639 16.7671L192.64 16.6577L192.68 15.584L192.822 14.9826L192.909 14.5496L192.932 14.5154L192.942 14.4761L193.308 13.9576L193.541 13.6125L193.563 13.598L193.579 13.5758L194.176 13.1846L194.478 12.9804L194.491 12.9778L194.503 12.9701L195.627 12.7489L196.749 12.9701L196.761 12.9778L196.774 12.9804L197.076 13.1846L197.674 13.5758L197.689 13.598L197.712 13.6125L197.944 13.9576L198.311 14.4761L198.321 14.5154L198.344 14.5496L198.433 14.9972L198.574 15.59L198.603 16.3793L198.926 17.81L199.499 19.908L200.634 22.3014L202.164 24.9383L204.16 27.4053L206.524 29.9149L208.671 31.8941L208.707 31.9445L208.761 31.9804L210.442 33.6614L210.537 33.8041L210.652 33.8946L211.644 35.1093L211.848 35.6782L212.241 36.2625L212.467 37.0808L212.506 37.3687L212.558 37.5284L212.624 38.0375L212.653 38.4672L212.402 39.7117L212.324 39.8262L212.3 39.9304L212.086 40.1798L211.717 40.7282L211.484 40.8846L211.347 41.0451L210.713 41.5098L209.934 41.7661L209.366 42.1078L207.834 42.4187L207.488 42.4537L207.383 42.4828L205.504 42.6365L203.745 42.8074L203.563 42.8168L203.538 42.8227L201.947 42.9005L201.892 42.9022L201.888 42.903L200.827 42.9423L200.669 42.9449H200.287L198.995 42.7373L198.826 42.6502L198.693 42.6237L198.427 42.4443L197.872 42.1582L197.748 41.9856L197.39 41.7456L196.513 40.4438L196.47 40.2277L196.395 40.126L196.276 39.7638L196.065 38.4672L196.188 37.472L196.357 36.7989L196.528 36.4137L196.582 36.166L196.936 35.3844L197.101 35.1939L197.169 34.9607L197.662 34.191L197.895 33.9732L198.181 33.5888L198.748 33.0866L200.134 32.5595L200.662 32.7594L199.555 31.5866L199.479 31.4679L199.389 31.397L197.185 28.6473L197.107 28.4286L196.88 28.192L195.243 25.2074L195.214 25.0981L195.149 25.0238L194.823 24.3319L194.683 25.0887L194.727 28.2048V28.2287L194.717 28.409L194.332 31.8497L194.324 31.8642L194.317 31.9513L193.751 35.4125L193.678 35.5407L193.6 35.955L192.509 38.7397V38.7405L192.5 38.761L192.48 38.7866L191.936 39.6673L190.24 41.5534L190.213 41.573L190.192 41.6046L189.23 42.3085L189.198 42.317L189.172 42.335L188.892 42.3956L188.034 42.6177L186.065 42.7407L185.846 42.7476L185.249 42.6937L183.163 42.3179L182.072 41.9087L181.826 41.7012L181.706 41.6593L179.772 40.1482L179.416 39.7109L179.074 39.4059L177.396 36.9749L177.277 36.5965L176.314 37.9734L175.967 38.2792L175.631 38.691L172.968 40.7735L172.804 40.8307L172.421 41.1271L171.179 41.5047L168.218 41.831L167.851 41.8515L167.842 41.8541L165.017 41.8763H164.987L163.61 41.5995L163.605 41.597L163.601 41.5961L163.597 41.5935L161.598 40.7573L161.382 40.5787L161.105 40.4985L160.561 39.8979L160.036 39.4632L159.971 39.2453L159.803 39.0608L158.977 37.3977L158.952 37.2926L158.876 37.1799L158.596 35.7927V33.424L158.684 32.639L159.358 29.6493L159.474 29.4648L159.566 29.0291L160.973 25.8421L161.254 25.5124L161.365 25.1844L163.585 22.2536L163.701 22.1579L163.805 21.9948L165.993 19.6679L166.319 19.4373L162.894 19.5501L157.51 20.0686H157.505L152.107 20.6212L152.102 20.6221L148.522 21.0133L149.063 24.8213V24.8256L149.134 25.2783L151.228 27.8264L151.247 27.8794L151.311 27.9357L153.417 30.8631L153.497 31.1125L153.685 31.3406L154.9 34.2184L155.042 34.9086L155.115 35.0546L155.401 37.9162V37.9179L155.633 39.9868L155.656 40.3772L155.392 41.6824L155.316 41.7951L155.292 41.8959L154.865 42.7382L154.698 42.9184L154.341 43.489L153.766 43.9272L153.605 44.1015L153.497 44.1322L153.344 44.2484L152.094 44.6089L151.352 44.6789L151.005 44.696L149.621 44.4167L149.218 44.1442L149.002 44.0776L147.764 43.2345L147.269 42.6809L146.802 42.2487L145.511 40.2755L145.361 39.7741L145.093 39.4017L144.045 36.1369L144.011 35.9234L143.943 35.7517L143.005 31.256L142.986 31.0758L142.96 30.9972L142.247 25.813L142.238 25.6892L142.228 25.6567L141.992 23.2163L141.867 23.095L140.515 22.2613L139.726 22.0998L139.085 22.2382L137.877 21.9939L137.712 21.8829L137.578 21.8479L137.37 21.6522L136.892 21.3294L136.655 20.9791L136.47 20.804L136.373 20.6537L136.325 20.4897L136.227 20.3436L136.223 20.3257L136.114 20.1625L135.86 18.9068L136.114 17.6512L136.518 17.0498L136.582 16.873L136.677 16.814L136.805 16.6261L137.83 15.9351L138.252 15.8497L138.409 15.7531L139.458 15.5276L139.931 15.4764L140.02 15.455L141.265 15.4029L140.996 12.2227L140.869 11.7196L140.217 11.2805L140.081 11.0798L139.981 11.0132L139.921 10.8415L139.588 10.3469L139.356 9.20313L139.588 8.05935L140.217 7.12571L141.151 6.49617L142.294 6.26553L142.801 6.30995ZM175.039 21.6044L173.828 22.0298L172.286 22.8174L170.622 24.2054L168.829 26.2709L167.112 28.8002L166.162 31.379L165.724 33.7528V34.7548L165.731 34.7582L167.66 34.7736L169.581 34.5908L171.294 33.4504L173.212 31.2603L174.912 28.6618L175.853 25.9779L175.873 25.854L175.882 24.5411L175.895 21.794V21.7923L175.896 21.7103L175.902 21.5156L175.039 21.6044Z" fill="hsla(216, 40%, 20%, 1)"/>
</svg>
