<?xml version="1.0" encoding="UTF-8"?>
<!DOCTYPE svg PUBLIC "-//W3C//DTD SVG 1.1//EN" "http://www.w3.org/Graphics/SVG/1.1/DTD/svg11.dtd">
<!-- Creator: CorelDRAW X8 -->
<svg xmlns="http://www.w3.org/2000/svg" xml:space="preserve" width="50px" height="50px" version="1.1" style="shape-rendering:geometricPrecision; text-rendering:geometricPrecision; image-rendering:optimizeQuality; fill-rule:evenodd; clip-rule:evenodd"
viewBox="0 0 29700 21000"
 xmlns:xlink="http://www.w3.org/1999/xlink">
 <defs>
  <style type="text/css">
   <![CDATA[
    .fil0 {fill:#FEFEFE}
   ]]>
  </style>
 </defs>
 <g id="Camada_x0020_1">
  <metadata id="CorelCorpID_0Corel-Layer"/>
  <path class="fil0" d="M8984 12692c66,810 73,1643 -984,1252 -596,-220 -1080,-429 -1649,-713 -811,-405 -2243,-1113 -2911,-1666l0 0 5544 1127zm8152 -5774c2000,-267 2753,608 1446,2298 -1179,1524 -2972,1987 -5213,1936 63,-1996 1761,-3966 3767,-4234zm-6059 4165c-125,0 -384,-10 -325,-24 22,-384 18,-881 -11,-1347 -64,-1015 -250,-3576 -896,-4221 -933,-931 -3511,1533 -4003,2353 -354,589 -1074,1916 -199,2328 1093,514 1220,-1130 1638,-1604 276,-313 557,-566 858,-851 487,-461 641,-742 723,-88 57,454 206,2961 121,3269 -699,118 -5131,-1079 -6109,-1326 -825,-208 -2686,-463 -2533,912 89,794 1129,1534 1740,1980 1414,1032 3203,1860 4750,2699 2525,1369 3918,514 3940,-2306l461 21c66,235 206,783 1020,1675 387,424 1237,916 1615,1086 1215,547 3468,555 4795,525 4478,-102 14620,-4377 9104,-3407 -1531,270 -3021,568 -4534,869 -1956,388 -7907,876 -9291,-726 467,-17 1813,-32 3236,-653 992,-433 1594,-746 2372,-1524 1460,-1458 2284,-3804 243,-5167 -3651,-2438 -8592,1696 -8715,5527z"/>
 </g>
</svg>
