<svg width="171" height="48" viewBox="0 0 171 48" fill="none" xmlns="http://www.w3.org/2000/svg">
<path d="M6.2647 2.25336L6.27495 2.2602L6.28691 2.26276L6.61749 2.48571L7.2701 2.91452L7.28462 2.93502L7.30426 2.94868L7.55967 3.32709L7.96114 3.8977L7.96969 3.93443L7.99104 3.96604L8.09013 4.45891L8.24047 5.11237L8.28318 6.4808L8.28489 6.58758V9.56703L8.27378 9.84208L7.88854 14.3693V14.371L7.37858 20.0797L7.00017 25.7977L7.02579 31.2458L7.23166 35.3024L8.39166 37.8308L10.0471 39.5922L11.7359 40.3789L14.1643 40.425L16.4613 40.2217L18.3644 38.8661L20.33 36.2599L21.7958 33.0063L22.7824 29.0599L22.9942 24.9144L22.9857 21.1021L22.345 18.127L21.7633 16.75L20.945 16.492L20.7383 16.3425L20.3991 16.2563L19.6193 15.5362L19.3664 15.3534L19.3417 15.2799L19.2665 15.2107L18.5763 14.1584L18.5558 14.0917L18.4721 13.9918L18.051 12.8429L17.8588 11.7529V11.7504L17.7862 11.3805L17.7127 10.6373L18.0074 9.17495L18.8129 7.98078L20.0071 7.17612L21.4686 6.88057H21.5455L21.8205 6.89082L21.9854 6.90278L22.9464 7.16416L23.007 7.17612L23.0181 7.18295L23.341 7.27094L23.3777 7.29827L23.4111 7.30596L23.5605 7.43323L24.4395 8.08584L24.5762 8.3011L24.7171 8.42154L25.1271 8.97934L26.0078 9.91383L26.2726 10.3256L26.464 10.5118L27.6368 12.432L27.7205 12.7301L27.8999 12.9497L29.0231 15.6831L29.0838 15.9829L29.2282 16.3536L29.9645 20.0028L30.0379 20.7229V20.7306L30.0285 25.0101L30.0243 25.1733L29.8005 29.7663L29.7655 29.9072L29.6997 30.4403L28.5482 35.0495L28.4312 35.2281L28.3475 35.6184L26.581 39.5375L26.3094 39.8527L26.2026 40.173L23.6835 43.5514L23.2334 43.9306L22.8883 44.321L19.7594 46.5189L19.5996 46.5701L19.3066 46.7914L18.0381 47.1518L14.6145 47.4585L14.2865 47.473L14.1925 47.4722L10.8261 47.3825L9.49443 47.0801L9.47906 47.0698L9.46624 47.0664L6.45946 45.6946L6.35269 45.6015L5.38488 44.9198L2.86157 42.2504L2.33111 41.4278L2.21579 41.2946L0.544125 37.6489L0.542417 37.6429L0.538146 37.6369L0.217821 36.3137L0.00341676 31.5072L0 31.3431V31.3269L0.0264801 25.6721L0.0273345 25.6678L0.0401473 25.3774L0.568897 19.4869L0.574876 19.4646L0.580002 19.3852L0.88068 16.9584L0.818323 14.7554L0.817469 14.6871L0.878117 14.1592L1.15146 12.9907L1.37697 11.6017L1.41968 11.5257L1.46324 11.2489L1.64006 10.7048L1.79724 9.37398V6.58758L1.79895 6.48593L1.84166 5.10725L1.99541 4.44268L2.09194 3.96604L2.11329 3.93443L2.12183 3.8977L2.52245 3.32709L2.77786 2.94868L2.79836 2.93502L2.81288 2.91452L3.46463 2.48571L3.79521 2.26276L3.80717 2.2602L3.81827 2.25336L5.04149 2.01163L6.2647 2.25336Z" fill="hsla(216, 40%, 20%, 1)"/>
<path d="M38.5214 5.82648L39.5968 6.55169L40.322 7.62713L40.5885 8.94431L40.5825 9.13394L40.2776 14.5769L40.3809 18.707L40.3818 18.7514V18.7531L40.445 23.4871V23.4905L40.5091 28.2911L40.5962 32.5928L41.1463 35.896L41.8698 38.5902L41.8715 38.603L41.8732 38.6047L42.3447 40.3353L42.6582 41.14L42.7437 41.5884L42.8889 42.0531L42.9179 42.2889L42.9435 42.716L42.6728 44.0579L41.9339 45.1538L40.8379 45.8927L39.496 46.1635L39.086 46.1396L38.8152 46.1071L37.5561 45.7091L37.4553 45.6305L37.3801 45.61L37.2358 45.4571L36.5422 44.9121L36.2261 44.3962L36.0553 44.2168L35.547 43.2746L35.4249 42.7928L35.2387 42.522L34.6962 40.6428L34.6826 40.5463L34.6621 40.5147L33.9181 37.6335L33.8882 37.4003L33.8412 37.2679L33.2441 33.5436L33.2005 33.0114L33.1946 32.9841L33.1356 28.4021L33.1348 28.3517L33.1356 28.303L33.1988 23.4879L33.262 18.7505L33.2629 18.7488V18.7121L33.3705 14.4317L33.3731 14.418L33.3799 14.2438L33.8318 8.659L33.9984 8.06192L34.0863 7.62713L34.1427 7.54342L34.1709 7.44262L34.5681 6.91217L34.8116 6.55169L34.8654 6.51496L34.9072 6.45859L35.5598 6.04686L35.887 5.82648L35.9195 5.81964L35.9494 5.8L37.2042 5.55997L38.5214 5.82648Z" fill="hsla(216, 40%, 20%, 1)"/>
<path d="M53.1308 19.1289L54.2003 19.1315L54.2139 19.1341L55.0425 19.2536L55.8284 19.4843L56.0163 19.6158L56.3486 19.697L57.2258 20.4615L57.3557 20.552L57.3659 20.5836L57.4001 20.6135L58.1321 21.6386L58.2569 22.0264L58.5182 22.3664L59.1461 24.0645L59.2118 24.4301L59.3212 24.7649L59.6219 27.0192L59.6424 27.3164L59.6509 27.3523L59.7577 30.2361L60.0276 33.1805L60.0421 33.494L60.043 33.4983L60.0532 36.2035L60.3078 38.3672L60.5051 39.1249L60.5743 39.1428L61.7129 39.9065L62.164 41.2288L61.953 42.1599L61.5831 42.9363L61.4746 43.0576L61.4311 43.2097L60.9664 43.6291L60.547 44.0998L60.3941 44.1442L60.2736 44.2535L59.5544 44.608L59.4621 44.6302L59.363 44.6968L58.092 44.9531L56.8705 44.7174L56.8466 44.702L56.8201 44.6968L56.504 44.4833L55.8608 44.0724L54.9554 43.2259L54.1533 42.0975L54.0884 41.7883L53.991 41.6456L53.5186 39.9953L53.4656 39.6246L53.4024 39.4205L53.0983 36.8391L53.0727 36.4145V36.4017L53.0838 33.6059L52.9121 30.6649L52.9053 30.4548L52.9079 30.3284L53.0155 27.4138L53.0146 25.5628L52.9079 25.1237L52.0434 25.1229L50.4435 25.4415L50.3623 25.45L50.3453 25.4594L47.7126 25.9113L44.892 26.4998L44.7699 26.5126L44.7434 26.5272L41.4761 27.0619L41.4377 27.0645L41.4317 27.0687L38.0089 27.5958L37.979 27.5975L37.9747 27.6L35.4941 27.9673L31.9603 30.899L31.8134 30.9519L31.2419 31.3372L30.1263 31.5627L29.0116 31.3372L28.101 30.723L27.4869 29.8124L27.2622 28.6977L27.4869 27.583L27.5159 27.5402L27.5253 27.4958L27.726 27.2285L28.101 26.6724L28.1856 26.6151L28.2403 26.5417L32.3165 22.9763L33.0016 22.7183L33.7388 22.2929L36.9975 21.7129L37.0624 21.7069L37.0744 21.7001L40.4946 21.1619L40.5006 21.1611L43.7201 20.6392L46.5236 20.0421L46.6355 20.0301L46.6594 20.0165L49.3065 19.562L51.1405 19.193L51.7419 19.1324L51.7461 19.1315L53.1214 19.1289H53.1257H53.1308Z" fill="hsla(216, 40%, 20%, 1)"/>
<path d="M61.1817 8.89818L61.4225 9.05108L61.578 9.09294L62.5561 9.66525L63.3727 10.4887L63.6828 11.6427L63.3727 12.7976L62.9712 13.1991L62.8901 13.6006L62.1495 14.6999L61.0501 15.4414L59.703 15.713L58.3568 15.4414L57.2575 14.6999L56.5169 13.6006L56.2444 12.2543L56.5169 10.9081L57.2575 9.80876L58.3568 9.06731L58.7754 8.98275L58.9872 8.89989L60.0857 8.6889L61.1817 8.89818Z" fill="hsla(216, 40%, 20%, 1)"/>
<path d="M71.4398 0.239176L71.4483 0.245156L71.4586 0.246864L71.7874 0.467248L72.4358 0.892639L72.4477 0.909723L72.4648 0.920828L72.7211 1.29668L73.1226 1.86472L73.1294 1.89547L73.1473 1.9211L73.2507 2.41397L73.4027 3.06658L73.4403 4.13177L73.442 4.24623L73.4155 4.37863L73.4173 4.64001L73.4856 6.74989L74.0579 10.077L74.0758 10.2752L74.0938 10.3358L74.5431 14.8913L74.5465 14.9605L74.5499 14.9741L74.971 20.3001L74.9753 20.4094L74.9787 20.4239L75.2581 26.2197V26.2222L75.5442 31.5541L75.9602 35.9072L76.8255 34.0894L76.8921 34.0151L76.9186 33.9194L78.5792 31.1484L79.7025 30.5154L80.6318 30.9007L81.0162 31.8292V31.8514L80.9624 35.0769L80.9598 35.082L80.9479 35.2947L80.5302 38.8148L80.4994 38.8738L80.4601 39.1787L79.6845 42.1266L79.6384 42.1966L79.6085 42.3649L78.8577 44.4645L78.744 44.6132L78.6842 44.8575L77.6601 46.0499L77.6276 46.073L76.9383 46.5744L76.7623 46.6325L76.4078 46.8981L75.1009 47.2586L74.5132 47.3056L74.2014 47.3184L72.7527 47.0263L72.5451 46.8862L72.3803 46.8435L72.1351 46.6094L71.5688 46.2285L71.2715 45.7868L71.0468 45.5733L70.2909 44.3663L70.1593 43.9144L69.9159 43.5873L69.1599 41.3979L69.0779 40.9136L68.9703 40.5583L68.5919 37.0603L68.5885 37.0065L68.585 36.9945L68.1298 32.1957L68.1186 31.965L68.1135 31.9437L67.9461 26.5229V26.5169L67.7676 20.7143V20.7126L67.5788 15.379V15.3713V15.3705L67.4208 10.862L67.1269 7.35125L67.1201 7.19066L67.1167 7.17613L67.0398 4.81256L67.0381 4.70493V4.6776L67.0518 3.14773L67.1995 2.44301L67.3012 1.93989L67.3072 1.93135L67.3089 1.9211L67.7172 1.32316L67.982 0.930224L67.9871 0.926807L67.9914 0.920828L68.6542 0.476644L68.9916 0.249427L68.9951 0.248573L68.9976 0.246864L70.2285 0L71.4398 0.239176Z" fill="hsla(216, 40%, 20%, 1)"/>
<path d="M84.4681 19.7738L84.8422 20.0267L85.0387 20.0873L85.1591 20.2394L85.4837 20.4589L86.1688 21.4746L86.1799 21.5309L86.2021 21.5583L88.2343 26.7723L88.3017 27.1251L88.4367 27.5078L88.9774 30.8434L89.6898 34.2295L89.6915 34.2483L89.6949 34.2551L90.3048 37.1568L90.638 38.2656L91.6194 38.6235L92.2601 39.7373L92.5779 41.5431L92.6231 42.0497L92.401 43.1499L92.3976 43.1541L92.3968 43.1584L92.1952 43.454L91.7946 44.0485L91.7869 44.0545L91.7809 44.0622L91.3555 44.4824L90.6457 44.9557L90.2852 45.1982L90.2792 45.1991L90.2741 45.2025L88.9552 45.4673L88.7374 45.4596L87.9455 45.4092L86.6019 45.0573L86.5224 44.9984L86.4524 44.9813L86.2534 44.8019L85.5136 44.2595L85.324 43.9639L85.1532 43.8102L84.2554 42.4913L84.0726 41.8993L83.7565 41.4466L83.0757 39.1813L83.0407 38.9455L82.9767 38.7764L82.3984 35.738L82.3941 35.6987L82.3881 35.6833L81.7543 32.1819L81.7201 31.8112L81.6988 31.7284L81.51 28.6345L80.1441 23.5725L80.0288 22.7183L80.2799 21.4746L80.965 20.4589L81.9807 19.7738L83.2244 19.5227L84.4681 19.7738Z" fill="hsla(216, 40%, 20%, 1)"/>
<path d="M93.9539 6.53032L95.1549 7.34011L95.9647 8.54111L96.2619 10.012L95.9647 11.483L95.1549 12.684L93.9539 13.4938L92.483 13.791L91.0129 13.4938L89.8119 12.684L89.0021 11.483L88.7048 10.012L89.0021 8.54111L89.8119 7.34011L91.0129 6.53032L92.483 6.23306L93.9539 6.53032Z" fill="hsla(216, 40%, 20%, 1)"/>
<path d="M105.594 2.81113L105.596 2.81284H105.598L105.934 3.03921L106.591 3.48083L106.594 3.48424L106.597 3.48681L106.861 3.87803L107.266 4.47426L107.268 4.4811L107.271 4.48622L107.376 5.00387L107.519 5.69321L107.543 9.94883L107.624 14.0234L107.809 19.0247L107.811 19.1178L107.812 19.1212L107.865 23.9816L108.209 28.8198L108.731 32.9029V32.908L108.872 33.939L109.034 33.9946L109.61 34.8607L110.217 37.1269L110.228 37.2123L110.243 37.2371L110.644 39.0403L110.71 39.6357L110.709 39.7117L110.676 40.8717L110.508 41.6089L110.433 41.9702L110.415 42.0138V42.0146L110.414 42.0155L110.382 42.0915L110.381 42.0932L110.381 42.0941L110.365 42.1308L110.318 42.1863L109.66 43.1635L109.289 43.4138L109.145 43.5864L108.942 43.6479L108.588 43.8862L107.277 44.151L105.987 43.8939L105.969 43.8871L105.966 43.8862L105.963 43.8836L105.372 43.6393L105.07 43.3908L104.729 43.284L104.354 42.8005L103.825 42.3657L103.702 41.9617L103.45 41.6371L102.974 40.3729L102.923 40.097L102.852 39.9893L102.244 37.6454L102.208 37.361L102.158 37.2115L101.702 33.8681L101.699 33.828L101.696 33.816L101.165 29.6313L101.148 29.3836L101.139 29.3451L100.886 24.3079L100.882 24.1251V24.0867L100.936 19.1187L100.937 19.1161L100.938 19.0307L101.124 14.0208L101.205 9.94798L101.229 5.6915L101.375 4.98764L101.476 4.48622L101.48 4.4811L101.481 4.47426L101.886 3.87803L102.15 3.48681L102.154 3.48424L102.156 3.48083L102.814 3.03921L103.15 2.81284H103.151L103.154 2.81113L104.374 2.56598L105.594 2.81113Z" fill="hsla(216, 40%, 20%, 1)"/>
<path d="M155.448 16.9653L156.524 17.0328L156.571 17.0456L156.786 17.0609L157.852 17.213L158.976 17.5923L159.879 18.3226L160.479 19.3229L160.698 20.5119L160.479 21.7018L160.295 22.0093L160.278 22.0819L160.167 22.2212L159.887 22.6893L159.894 22.6833L159.842 22.7439L159.751 22.8046L159.618 22.9131L159.447 23.1283L159.324 23.2283L159.159 23.3786L159.131 23.3889L159.099 23.4307L158.533 23.9159L157.753 24.7223L156.727 26.1266L156.699 26.1505L156.691 26.1735L156.257 26.7254L157.036 27.5462L159.764 29.4255L163.036 31.2398L163.082 31.2859L163.139 31.3013L165.743 32.8858L167.772 33.9015L168.039 34.1466L168.3 34.2355L169.302 35.0034L169.41 35.135L169.59 35.2537L170.076 35.9422L170.268 36.1754L170.282 36.2352L170.327 36.2984L170.627 37.5891L170.647 38.1938L170.65 38.3151L170.395 39.6144L170.384 39.6315L170.38 39.6503L170.15 39.9919L169.7 40.6847L169.251 41.1545L168.137 41.9327L167.72 42.0198L167.55 42.1274L165.101 42.7049L165.057 42.71L165.034 42.7194L162.18 43.3575L161.973 43.3805L161.876 43.413L158.475 43.9076L158.133 43.9324L158.079 43.946L155.187 44.0818L155.024 44.0853L155.02 44.0861L153.112 44.0989H153.099L153.098 44.0998L151.648 44.1049H151.632H151.097L149.775 43.8777L149.545 43.7965L149.481 43.7487L149.358 43.7239L148.124 42.8919L147.882 42.5323L147.707 42.3991L147.631 42.1599L147.293 41.6593L146.988 40.1491L147.293 38.6389L147.631 38.1383L147.707 37.8983L147.88 37.7685L148.124 37.4054L149.358 36.5743L149.493 36.5469L149.552 36.5068L149.571 36.4923L149.747 36.4291L151.097 36.1933H151.632H151.647L153.099 36.1984H153.1H153.11L154.996 36.2113L157.495 36.1976L156.266 35.568L156.137 35.4476L155.983 35.4023L152.728 33.3044L152.519 33.0806L152.124 32.8107L151.737 32.416L150.669 33.8682L150.651 33.8836L150.646 33.8989L148.288 36.9792L148.18 37.0689L148.082 37.2192L145.53 39.8578L145.201 40.0859L145.023 40.2815L142.708 41.8259L142.55 41.8746L142.282 42.0694L141.058 42.3846L138.784 42.5221L138.566 42.5289L138.031 42.4871L136.323 42.2188L135.87 42.06L135.529 41.9908L135.369 41.8831L135.165 41.8114L134.732 41.4552L134.422 41.2468L133.194 40.0227L130.705 42.3658L130.224 42.675L130.036 42.8595L126.539 44.8404L126.447 44.8652L126.331 44.9514L125.06 45.2914L121.862 45.5195L121.604 45.5289L121.184 45.5032L118.721 45.2034L117.523 44.8233L117.287 44.6371L117.154 44.5944L115.531 43.4506L115.369 43.2644L115.087 43.0739L114.699 42.4973L114.465 42.2317L114.435 42.1069L114.34 41.9651L114.066 40.6078V40.589L114.077 38.4484L114.078 38.4433L114.092 38.14L114.347 35.4536L114.526 34.8386L114.609 34.4337L116.048 31.0732L116.176 30.9203L116.233 30.7128L118.32 27.1601L118.448 27.0346L118.619 26.7382L120.718 24.2166L117.246 24.5173L111.767 25.1178L107.214 25.7977L101.726 28.5431L101.644 28.5619L101.525 28.6422L100.286 28.8925L99.0462 28.6422L98.0348 27.9597L97.3523 26.9475L97.1021 25.708L97.3523 24.4686L97.5437 24.1841L97.5898 24.0235L97.7504 23.8775L98.0348 23.4563L98.7293 22.9882L98.8643 22.8652L104.806 19.8935L105.529 19.7209L105.776 19.5842L110.878 18.8223L110.986 18.8146L111.019 18.8044L116.582 18.1945L116.664 18.1902L116.682 18.1851L122.096 17.7383L122.151 17.7358L122.161 17.734L126.736 17.4342L126.936 17.4274H126.938L130.563 17.4112L130.728 17.3975L131.167 17.2762L131.995 17.1626L132.048 17.1634L133.639 17.1908L134.771 17.2002L135.439 17.3403L135.916 17.4359L135.924 17.4419L135.933 17.4436L136.499 17.8297L136.872 18.0809L136.875 18.086L136.88 18.0894L137.113 18.4362L138.198 18.6549L138.638 18.9521L138.834 19.0153L138.931 19.1495L139.208 19.3357L139.889 20.3453L139.907 20.435L139.93 20.4692L139.944 20.5435L139.98 20.5922L140.011 20.6853L140.17 21.6582L140.169 21.7266L140.151 22.5329V24.0269L140.142 24.2636L139.938 26.874L139.892 27.0397L139.839 27.4318L139.019 30.4403L138.924 30.5812L138.861 30.8734L138.312 32.0932L138.315 32.2871L138.316 32.3486L138.321 34.7104L138.583 35.5322L138.618 35.5672L139.025 35.6509L140.22 35.7235L141.694 35.035L144.282 33.0635L147.121 30.6291L149.003 28.8831L148.34 26.8672L148.152 25.708V23.7211L148.437 22.3074L148.451 22.2869L148.454 22.2699L149.23 20.4897V20.488L150.08 19.3015L151.306 18.1637L151.624 17.963L151.972 17.6743L152.214 17.588L152.424 17.4547L152.786 17.3855L153.186 17.2437L154.628 17.0071L155.223 16.9576L155.448 16.9653ZM131.477 23.5494L130.917 23.7203L128.725 25.0998L126.266 27.6846L123.915 30.6393L122.252 33.84L121.187 36.5717L121.04 38.4885L121.703 38.5731L123.787 38.4245L126.317 36.9971L129.158 34.5157L131.338 31.7814L131.388 29.0787L131.396 29.0454L131.431 28.6063L131.919 25.5346L131.988 25.339L132.029 25.0768L132.539 23.4367L131.477 23.5494Z" fill="hsla(216, 40%, 20%, 1)"/>
</svg>
