<svg width="193" height="47" viewBox="0 0 193 47" fill="none" xmlns="http://www.w3.org/2000/svg">
<path d="M36.4795 0.286157L37.6361 1.06604L38.4168 2.22348L38.7029 3.63975L38.492 4.86381L38.4347 4.96632L38.4168 5.05686L38.2323 5.33021L37.9137 5.90338L37.8829 5.94181L37.7163 6.39625L37.5865 6.56367L37.5216 6.80797L36.8322 8.00983L36.8246 8.01752L36.822 8.02777L36.6418 8.20288L36.4752 8.53004L35.1059 11.3105L33.4966 15.3987L33.4872 15.4115L33.4829 15.4294L31.3961 20.4897L31.3833 20.5059L31.3782 20.529L29.0274 25.9378L26.9005 31.2321L26.8911 31.2449L26.8868 31.262L24.7265 36.4L24.6924 36.441L24.6778 36.5068L22.8874 40.3379L22.8157 40.419L22.7866 40.5326L21.3063 43.214L21.1508 43.3737L20.9074 43.7863L20.06 44.7814L19.9533 44.8634L19.8687 44.9882L19.1913 45.4451L18.8599 45.698L18.795 45.7125L18.73 45.7561L17.336 46.0371H17.2659L16.498 46.0217L16.129 45.9406L15.2876 45.7843L15.2116 45.7381L15.1356 45.7219L14.7862 45.4802L14.2139 45.1325L13.3956 44.4124L13.1735 44.1135L12.9275 43.9093L11.8759 42.5332L11.7717 42.2282L11.4975 41.9199L10.3179 39.4786L10.2735 39.2847L10.1872 39.1736L8.8982 35.7585L8.88539 35.6902L8.86318 35.6611L7.3632 31.3987L7.32989 31.2048L7.28035 31.1305L5.94096 26.1795L5.93071 26.1035L5.91619 26.0813L4.61866 20.8143L4.61781 20.8109L3.20837 15.5524L1.74855 11.0474L1.73317 10.9551L1.71011 10.9209L0.72607 7.48108L0.720091 7.43666L0.710694 7.423L0.1119 5.22685L0 4.40425L0.00427069 4.23256L0.047835 3.46293L0.194758 2.8872L0.278469 2.47035L0.314345 2.41739L0.330575 2.35588L0.695319 1.85276L0.922536 1.51535L0.956704 1.49229L0.98233 1.45812L1.57771 1.07373L1.87753 0.871284L1.89803 0.867013L1.91682 0.855054L3.04779 0.635524L4.17875 0.855054L4.19668 0.867013L4.21719 0.871284L4.51701 1.07373L5.11324 1.45812L5.13801 1.49229L5.17218 1.51535L5.40025 1.85276L5.765 2.35588L5.78037 2.41739L5.81625 2.47035L5.90338 2.90257L6.04774 3.47147L6.07165 3.90199L6.58417 5.73254L7.69378 9.02377L9.37057 13.4742L9.39876 13.6305L9.44574 13.698L11.0551 18.9957L11.0679 19.0751L11.0858 19.1025L12.5277 24.331L12.5286 24.337L13.9021 29.1795L15.3978 33.3001L15.3987 33.3044L16.621 36.5341L16.656 36.6016L18.0595 33.4983L20.1642 28.4252H20.1651L22.275 23.1223L22.3032 23.0873L22.3151 23.0309L24.6821 17.6298L26.7083 12.6302L26.7108 12.6276L28.4133 8.43523L28.4705 8.36347L28.497 8.24986L29.9448 5.24137L29.9824 5.19952L29.9969 5.14058L31.0134 3.21777L31.0579 3.17079L31.0741 3.11014L31.6165 2.17565L31.7463 2.04581L31.9215 1.73573L32.2332 1.34878L32.3716 1.23859L32.4878 1.06604L33.1515 0.618441L33.4701 0.365597L33.5564 0.345951L33.6452 0.286157L35.0623 0L36.4795 0.286157Z" fill="hsla(216, 40%, 20%, 1)"/>
<path d="M102.53 15.2893L103.594 16.0068L104.311 17.0703L104.574 18.3729L104.526 18.9034V19.2135L104.505 19.5799L104.365 20.8365L104.382 22.7746V22.8045L104.38 22.9258L104.285 25.5286L104.28 25.5491L104.271 25.7259L103.983 28.6455L103.945 28.7754L103.908 29.0795L103.223 31.9308L103.13 32.076L103.061 32.4177L101.991 34.9641L101.841 35.1452L101.774 35.3835L100.443 37.5702L100.26 37.747L100.203 37.9111L98.6376 39.8638L97.4665 40.8L97.3153 40.8341L97.2291 40.9042L95.4327 41.6191L94.6135 41.7789L94.1668 41.8745L92.2593 41.8993H92.2115L91.2813 41.7737L89.344 41.2424L88.7768 40.8572L88.1626 40.6488L86.2492 39.1838L85.8947 38.7542L85.5291 38.4338L84.1752 36.5238L84.0471 36.1249L83.7669 35.7721L82.7837 33.2736L82.7068 32.8721L82.6154 32.7252L82.307 31.3269L81.7604 33.4598L81.7569 33.4649L81.7552 33.4752L80.9566 36.4162L80.8899 36.5153L80.8455 36.7314L79.8555 39.0668L79.4942 39.499L79.3695 39.8279L78.5118 40.794L78.4973 40.8051L78.4862 40.8222L77.6149 41.485L77.5534 41.503L77.5073 41.5371L77.2083 41.6021L76.5241 41.7994L75.7793 41.8686L75.4786 41.8831L74.2682 41.6388L74.1828 41.5816L74.1016 41.5628L73.8402 41.3509L73.2799 40.9725L73.1645 40.8017L73.0339 40.6957L72.3308 39.8014L72.189 39.3939L71.861 38.9754L71.2819 37.4592L71.2571 37.3276L71.2161 37.2704L70.4687 34.9196L70.4584 34.859L70.4439 34.8368L69.6358 32.0999L69.635 32.0965L68.7842 29.4049L67.6225 26.9764L66.4984 25.1971L65.7245 24.524L65.1966 24.4489L64.4406 24.4566L64.1374 24.5941L63.5155 25.2236L62.7484 26.5912L62.0403 28.5858L61.5278 30.7383L61.3168 33.0788L61.2673 35.1597L61.327 36.7306L61.3296 36.8638L61.0956 38.093L60.9512 38.4595L60.9204 38.6252L60.8914 38.673L60.882 38.7208L60.6736 39.0301L60.2935 39.6528L60.2089 39.7194L60.1542 39.8005L59.8254 40.0218L59.6955 40.1251L59.6562 40.1738L59.6186 40.1849L59.3521 40.3959L59.2001 40.4438L59.0737 40.5283L58.679 40.6086L58.1674 40.7701L58.0332 40.7871L57.5993 40.8145L56.3787 40.5898L56.324 40.5565L56.2693 40.5463L55.9661 40.3413L55.3528 39.9714L55.275 39.8757L55.1836 39.8142L54.9701 39.4965L54.6045 39.0437L54.5473 38.8695L54.4516 38.7277L54.3756 38.3527L54.2158 37.8701L54.1987 37.747L53.9023 37.0082L53.8434 36.7066L53.7101 36.3564L53.4189 34.8274L53.4172 34.8223L52.4895 35.8379L52.3827 35.9156L52.305 36.0233L49.0044 39.0719L48.719 39.2521L48.5773 39.4068L44.8025 41.895L44.4369 42.0061L44.1448 42.235L40.0634 43.8093L38.8026 44.0476H35.4405L34.7964 43.987L32.0955 43.4719L31.8008 43.3591L31.524 43.3079L31.2729 43.1558L30.9876 43.0457L30.7398 42.8338L30.4853 42.6801L28.6479 41.0724L28.5821 40.9845L28.4831 40.9178L28.0329 40.2499L27.7869 39.921L27.7749 39.868L27.7408 39.8168L27.4683 38.468V38.4654L27.47 36.3257H27.4708L27.4725 36.218L27.5656 33.3095L27.6271 33.0421L27.7501 32.3075L28.8 29.2443L28.946 29.0487L29.0246 28.7421L30.6561 25.7549L30.8014 25.6046L31.0354 25.2065L33.2862 22.5542L33.3938 22.4722L33.4793 22.3467L35.783 20.0668L36.0743 19.8721L36.2341 19.6935L38.5276 18.1124L38.73 18.0492L39.1247 17.7827L40.4077 17.5239H40.4495L42.2083 17.5461L42.2177 17.5486L42.4313 17.5572L43.581 17.6511L43.7365 17.6939L44.1141 17.7425L45.1938 18.0236L45.3176 18.1064L45.5987 18.1637L46.5938 18.8342L46.7416 19.0537L46.8526 19.1272L46.9158 19.3117L47.2643 19.8293L47.5104 21.0474L47.5001 21.302L47.4489 21.9264L47.4258 22.4945L47.4207 23.4341L47.1772 24.6112L47.1439 24.6607L47.1328 24.7068L46.6314 25.778L46.5562 25.8634L46.5255 25.9787L45.9053 27.0619L45.6516 27.3156L45.5747 27.5231L44.4677 28.7959L44.2217 28.9812L44.05 29.1905L42.679 30.2523L42.6747 30.254L42.6705 30.2583L40.9595 31.5814L40.7562 31.6515L40.5469 31.8497L38.572 32.9046L38.2893 32.9763L38.1193 33.1011L34.4368 34.3439L34.395 36.3632L34.3958 36.8741L35.7993 37.1679H38.209L41.4566 36.0122L44.8572 33.8997L48.18 31.338L50.5821 29.1444L52.0795 27.1242L52.2759 26.85L52.1589 25.3535L52.1487 25.0972L52.1495 25.0272L52.1871 23.3427L52.1897 23.3324L52.1956 23.1718L52.2563 22.4013L52.2614 22.3826L52.2657 22.3031L52.293 22.0622L52.4399 21.589L52.5108 21.2413L52.5809 21.1371L52.621 21.009L52.9593 20.5759L53.1609 20.277L53.2284 20.2308L53.2839 20.1599L53.846 19.8148L54.1253 19.6261L54.1654 19.6184L54.2056 19.5936L55.3066 19.3877L56.4086 19.5936L56.4478 19.6184L56.488 19.6261L56.7673 19.8148L57.3294 20.1599L57.3849 20.2308L57.4524 20.277L57.654 20.5759L57.9931 21.009L58.0315 21.1363L58.1033 21.2413L58.1768 21.6052L58.322 22.0767L58.3391 22.2245L58.6124 21.7974L58.796 21.6257L59.0198 21.2969L60.3268 20.0062L61.1793 19.4373L61.228 19.3963L61.2638 19.3809L61.2655 19.3792H61.2681L62.5887 18.8026L62.6135 18.7975L62.6374 18.7821L63.788 18.5498H63.8153L65.4212 18.5643L65.4349 18.5677L65.8116 18.5942L67.432 18.8274L68.1786 19.2374L68.926 19.5167L70.6865 21.0483L70.9991 21.4634L71.2358 21.6872L72.6836 23.9654L72.7204 24.0918L72.8152 24.1926L74.2306 26.9021L74.287 27.1302L74.3937 27.2686L75.4487 30.1259L75.4683 30.2369L75.5025 30.2839L76.3635 33.0037L76.3644 33.0088L76.5976 33.7212L77.6593 31.801L77.7055 31.7531L77.7217 31.6968L79.331 29.1589L80.7234 26.7168L81.4383 24.5121V24.5112L81.534 24.2131L81.4725 22.9685L81.4682 22.8045L81.4699 22.7123L81.5297 20.6468L81.5596 19.5124L81.7031 18.8778L81.7954 18.4233L81.8116 18.3977L81.8184 18.3695L82.1977 17.8254L82.4403 17.4658L82.4565 17.4547L82.4685 17.4384L83.0852 17.031L83.3979 16.82L83.4073 16.8183L83.4158 16.8123L84.5707 16.5834L85.7435 16.82L86.3867 17.2539L86.5285 17.306L86.5678 17.3761L86.701 17.4658L87.346 18.4233L87.4536 18.9555L87.545 19.1178L87.7235 20.2283L87.7551 20.6101L87.7645 20.6511L87.8183 22.4945L88.2489 25.0588L88.26 25.1937L88.2745 25.2399L88.6239 28.1971L89.3431 30.8844L90.0991 32.7987L90.9174 33.9168L91.8954 34.654L92.7266 34.8906L93.5475 34.9009L93.9643 34.7539L94.8775 33.7169L96.005 32.0521L96.8515 30.0738L97.4298 27.7204L97.7134 25.1801L97.7672 22.7524L97.786 20.6349L97.7877 20.6263L97.8014 20.3419L97.9295 19.0486V18.8914L97.8808 18.3729L98.1439 17.0703L98.8606 16.0068L99.9249 15.2893L101.228 15.0262L102.53 15.2893Z" fill="hsla(216, 40%, 20%, 1)"/>
<path d="M113.722 14.2292L114.963 14.471L116.291 14.7118L116.532 14.8024L116.789 14.8468L118.112 15.3124L118.177 15.3619L118.299 15.3875L119.675 15.9786L119.791 16.076L120.532 16.5245L121.27 17.1728L121.329 17.2531L121.421 17.3146L121.848 17.9476L122.08 18.2593L122.09 18.308L122.122 18.3559L122.38 19.6295L122.287 20.4034L122.178 20.8578L122.107 20.9663L122.057 21.2337L121.921 21.5856L121.779 21.765L121.71 22.0136L120.974 23.2564L120.797 23.4307L120.539 23.8134L120.122 24.0944L119.94 24.2738L119.801 24.3105L119.62 24.4326L118.494 24.6599L117.369 24.4326L116.45 23.8134L115.831 22.8942L115.604 21.7692L115.635 21.589L114.844 21.3097L114.649 21.2806L115.634 23.077L117.309 25.4235L119.215 27.495L121.495 29.5032L123.591 31.2517L123.677 31.3619L123.807 31.4508L125.359 33.0156L126.384 33.9664L127.123 35L127.14 35.0802L127.173 35.123L127.468 35.867L127.697 37.0509V37.1269L127.453 38.3459L127.449 38.3518L127.448 38.3595L127.223 38.691L126.789 39.3453L126.777 39.3538L126.769 39.3658L126.385 39.6246L125.803 40.0269L125.781 40.0312L125.763 40.044L125.259 40.1457L124.589 40.2917L124.365 40.296L122.71 40.413L122.494 40.4207L122.489 40.4216L119.684 40.4404L116.426 40.5044L116.413 40.5053H116.412L113.296 40.5574L111.029 40.618L110.93 40.6197H109.402L108.043 40.3447L107.745 40.1439L107.551 40.0884L106.926 39.6981L106.724 39.4862L106.321 39.2146L105.967 38.6892L105.745 38.4552L105.704 38.2997L105.573 38.1041L105.299 36.7451L105.303 36.5811L105.349 35.5817L105.665 34.3004L105.979 33.8639L106.042 33.6751L106.958 32.4613L107.445 32.0547L107.759 31.719L110.358 30.0353L110.534 29.9832L110.677 29.8568L111.957 29.2469L110.171 26.7467L110.125 26.6032L109.992 26.4699L108.598 24.0568L108.422 23.4042L108.217 23.0685L107.736 20.8031L107.675 20.2231L107.66 20.1616L107.627 18.6386L107.626 18.56L107.632 18.3644L107.69 17.3607L107.857 16.7124L107.951 16.2434L107.993 16.1819L108.012 16.1102L108.423 15.5438L108.68 15.1637L108.72 15.1364L108.749 15.0962L109.422 14.6632L109.76 14.4351L109.784 14.43L109.805 14.4163L111.083 14.1677H112.149L113.062 14.166H113.07L113.722 14.2292ZM114.263 33.7135L116.414 33.7494H116.415H116.423L116.631 33.7537L115.305 32.6005L114.263 33.7135Z" fill="hsla(216, 40%, 20%, 1)"/>
<path d="M136.147 1.83648L136.174 1.85356L136.203 1.85954L136.487 2.05088L137.055 2.40879L137.093 2.45919L137.141 2.49165L137.351 2.80514L137.697 3.2647L137.722 3.35439L137.773 3.42956L137.852 3.82164L137.995 4.33416L138.542 10.9226L139.566 15.414L139.567 15.4165L140.777 20.2146L140.794 20.3461L140.814 20.3803L141.832 25.397L141.846 25.538L141.862 25.5653L142.517 29.8192V29.8235L143.136 33.5179L143.139 33.5563L143.144 33.57L143.585 36.3812V36.3863L143.846 37.9683L143.867 38.2194L143.883 38.2784L143.922 38.8225L143.93 39.0377L143.701 40.173L143.075 41.0998L142.149 41.7242L141.014 41.9531L139.88 41.7242L139.538 41.4944L139.36 41.4389L138.893 41.1169L138.796 41.0075L138.704 40.9759L138.565 40.7487L137.9 40.0004L137.76 39.4392L137.598 39.177L137.257 37.6027L137.241 37.4617L137.224 37.431L136.753 34.6258L136.751 34.5925L136.747 34.5805L136.152 30.8528L136.146 30.7759L136.138 30.7494L135.583 26.5502L134.639 21.618V21.6172L133.591 16.7858L133.583 16.7098L133.572 16.6927L132.665 11.9587L132.638 11.676L132.617 11.5991L132.113 4.80653L132.104 4.57846L132.335 3.42956L132.968 2.49165L133.906 1.85954L135.054 1.62805L136.147 1.83648Z" fill="hsla(216, 40%, 20%, 1)"/>
<path d="M138.771 16.0051L143.508 16.0128H143.57L148.538 16.1179H148.54L148.576 16.1187L152.917 16.2682L156.875 16.3699L156.878 16.3707L156.921 16.3716L158.489 16.4399L158.744 16.3733L159.962 16.2938L160.16 16.287H160.204L161.178 16.3024L162 16.3041H162.002L162.165 16.3092L162.707 16.3408L163.248 16.4809L163.64 16.5595L163.693 16.5954L163.755 16.6116L164.229 16.9567L164.412 17.0806L164.434 17.0626L164.561 17.0156L165.178 16.5997L166.273 16.3784L167.367 16.5997L167.979 17.0122L168.108 17.0601L168.187 17.1275L168.217 17.1677L168.267 17.1993L168.903 18.0561L168.911 18.0842L168.927 18.1056L168.972 18.3115L169.193 19.1255L169.3 20.5589L169.306 20.7212L169.309 20.7306L169.358 23.0651L169.48 25.9053L169.644 28.6114L170.18 31.1339L170.757 32.9781L171.309 33.7981L171.756 34.1227L172.155 34.0578L173.376 33.119L174.601 32.7005L176.016 33.2864L176.603 34.7019L176.465 35.4288L175.657 37.5036L175.536 37.6557L175.478 37.8675L174.97 38.3647L174.711 38.6901L174.604 38.7234L174.51 38.8148L173.135 39.5896L172.544 39.7468L172.26 39.915L171.104 40.1448L170.475 40.208L169.254 39.9612L169.054 39.8271L168.905 39.7869L167.314 38.8678L166.967 38.521L166.286 37.9128L165.138 36.2488L164.983 35.7551L164.705 35.3639L163.947 32.9414L163.908 32.6902L163.861 32.6133L163.732 31.9949L163.639 32.1623L163.495 32.3109L163.445 32.4639L161.289 35.4049L161.117 35.5509L160.952 35.7901L158.623 38.0486L157.593 38.726L157.547 38.7354L157.526 38.7525L155.14 39.6784L154.557 39.7895L154.071 39.9108L151.947 40.0227L151.755 40.0278L150.624 39.8399L149.068 39.3077L149.06 39.3017L149.042 39.2983L148.03 38.7294L147.799 38.3587L147.384 38.0478L147.145 37.3063L146.808 36.7647L146.505 35.4134L146.416 34.625V32.639L146.567 31.6199L147.311 29.1658L147.443 28.9804L147.521 28.6473L148.77 26.153L148.989 25.9147L149.068 25.673L151.109 22.931L151.186 22.8661L151.256 22.749L151.775 22.1537L148.581 22.263L148.537 22.2639L148.535 22.2647L143.573 22.3689L143.508 22.3698L138.771 22.3775H138.766H138.761L134.16 22.3698L127.884 22.5961L127.763 22.5987L126.526 22.3493L125.516 21.6676L124.835 20.6571L124.584 19.4202L124.824 18.209L124.831 18.197L124.835 18.1833L125.054 17.857L125.476 17.213L125.5 17.1959L125.516 17.1728L125.888 16.9217L126.448 16.5253L126.49 16.5159L126.526 16.4912L127.01 16.3938L127.648 16.2434L133.985 16.0145L134.099 16.0128H134.1L138.761 16.0051H138.766H138.771ZM162.174 22.0725L162.001 22.0776L162 22.0785L161.178 22.0802L160.45 22.0913L160.302 22.1186L159.478 22.8575L157.894 24.6351L156.292 26.6724L154.751 29.1914L153.892 31.291L153.427 33.0883V33.1259L153.484 33.1293L154.8 32.7329L156.645 31.2774L158.797 28.8737L160.705 26.2863L161.961 24.0064L162.636 22.0452L162.174 22.0725Z" fill="hsla(216, 40%, 20%, 1)"/>
<path d="M184.227 12.8019L185.302 12.8463L186.551 13.1478L186.676 13.2367L186.776 13.2631L190.679 15.4294L190.883 15.6276L191.399 15.9752L191.705 16.4297L191.904 16.6236L191.951 16.7936L192.11 17.0302L192.371 18.3217L192.11 19.6141L191.399 20.6691L190.344 21.3798L189.052 21.6411L187.76 21.3798L187.601 21.2721L187.468 21.2388L184.882 19.8345L184.879 20.0395L184.871 21.0816L185.127 21.9982L186.166 23.517L186.173 23.5392L186.195 23.5588L187.648 25.7336L189.234 27.6137L189.431 27.9494L189.565 28.0844L190.777 30.1789L190.794 30.2421L190.837 30.2874L191.81 32.1111L191.89 32.4246L192.027 32.6116L192.555 34.1945L192.645 34.7335L192.716 35.0128L192.792 36.2257L192.798 36.3744L192.798 36.3812L192.819 37.677L192.82 37.7291L192.728 38.4825L192.454 39.6024L192.249 39.9185L192.102 40.4583L191.536 41.017L191.307 41.3689L191.109 41.4372L190.902 41.6422L189.378 42.511L188.738 42.6818L188.407 42.8868L186.399 43.3284L185.913 43.3831L185.799 43.4113L183.599 43.5266L183.503 43.5292L183.496 43.53L181.134 43.5941L181.029 43.5949L179.753 43.3694L177.862 42.6809L177.73 42.5801L177.511 42.5289L175.65 41.6132L175.465 41.4466L174.829 41.0597L173.731 40.091L173.713 40.0671L173.684 40.0483L172.763 39.2069L172.504 38.8481L172.243 38.6235L171.641 37.7932L171.545 37.5002L171.297 37.2252L170.963 36.5486L170.834 36.3308L170.785 36.154L170.618 35.9114L170.315 34.4926L170.309 33.9989L170.253 33.6034L170.306 33.0182L170.392 32.5356L170.482 32.3827L170.57 31.9428L171.191 31.0228L171.333 30.9271L171.377 30.852L171.523 30.799L172.11 30.4035L173.236 30.1755L173.657 30.2506L173.847 30.2147L175.226 30.4932L175.573 30.7273L175.782 30.7896L175.941 30.9758L176.352 31.2526L176.98 32.1837L177.388 32.5382L177.898 33.2489L177.899 33.2497L178.275 33.7657L178.912 34.3508L178.945 34.3961L178.995 34.4294L179.618 35.0393L180.893 35.6859L181.911 36.1651L183.501 36.2078L183.508 36.2087L183.589 36.2112L185.569 36.3146L186.51 36.2411L186.483 35.8123L186.166 34.8624L185.37 33.4163L184.22 31.7327L182.583 29.9696L182.462 29.7782L182.337 29.6723L180.691 27.4241L180.68 27.3899L180.643 27.3574L179.264 25.3885L179.081 24.8102L178.773 24.3584L178.24 22.4723L178.118 21.6061L178.108 21.5557L178.097 20.0387L178.078 18.6762V18.6275L178.345 17.3001L178.402 17.2172L178.42 17.1404L178.98 15.9821L179.117 15.83L179.758 14.957L180.6 14.2011L181.399 13.7082L181.507 13.6176L182.708 13.0906L182.739 13.0846L182.768 13.065L184.086 12.7985L184.227 12.8019Z" fill="hsla(216, 40%, 20%, 1)"/>
</svg>
